<?xml version="1.0" standalone="no"?><!DOCTYPE svg PUBLIC "-//W3C//DTD SVG 1.1//EN" "http://www.w3.org/Graphics/SVG/1.1/DTD/svg11.dtd"><svg t="1592391205654" class="icon" viewBox="0 0 1341 1024" version="1.1" xmlns="http://www.w3.org/2000/svg" p-id="35193" xmlns:xlink="http://www.w3.org/1999/xlink" width="392.87109375" height="300"><defs><style type="text/css"></style></defs><path d="M1197.693647 1024H143.31377A143.31377 143.31377 0 0 1 0 880.68623V143.31377A143.643986 143.643986 0 0 1 143.31377 0h1054.379877a143.643986 143.643986 0 0 1 143.31377 143.31377v737.37246a143.31377 143.31377 0 0 1-143.31377 143.31377z m-1054.379877-924.604966A44.248952 44.248952 0 0 0 99.064818 143.31377v737.37246a44.248952 44.248952 0 0 0 44.248952 44.248952h1054.379877a44.579168 44.579168 0 0 0 44.248952-44.248952V143.31377A44.579168 44.579168 0 0 0 1197.693647 99.064818z" p-id="35194"></path><path d="M608.257981 518.769429a192.515963 192.515963 0 1 0-270.777168 0 212.989358 212.989358 0 0 0-142.323122 212.989358c0 81.563367 120.198646 81.563367 286.957756 81.563367h99.064817c70.996453 0 119.538213-4.292809 147.606579-33.021606a68.68494 68.68494 0 0 0 20.803612-50.192841c0-104.348275-49.532409-177.65624-141.332474-211.338278zM472.208965 272.428249a110.292164 110.292164 0 1 1-108.9713 109.961948 110.292164 110.292164 0 0 1 108.9713-109.961948z m66.043212 459.990971h-56.13673a1037.208642 1037.208642 0 0 1-204.073525-11.557562c6.934537-115.905837 108.641084-140.672041 194.167043-140.672042 168.41019 0 193.176395 81.563367 194.497259 146.285715a590.426314 590.426314 0 0 1-129.774912 5.943889zM1080.466946 705.341503h-211.668494a41.277007 41.277007 0 1 1 0-82.554015h211.668494a41.277007 41.277007 0 0 1 0 82.554015zM1080.466946 547.498226h-211.668494a41.277007 41.277007 0 0 1 0-82.554014h211.668494a41.277007 41.277007 0 0 1 0 82.554014zM1080.466946 384.371493h-211.668494a41.277007 41.277007 0 1 1 0-82.554015h211.668494a41.277007 41.277007 0 0 1 0 82.554015z" p-id="35195"></path></svg>